#!OML:ASF Y:\EmotionMaleHayes\Project 1\Capture day 1\Session 1\Male1.ASF
:FULLY-SPECIFIED
:DEGREES
223
root 44.9164 17.156 -1.78525 417.937 84.745 429.596
lowerback 14.2089 0.0271508 -9.22436
upperback 2.49441 -1.26854 -0.818665
thorax -5.12323 -0.424215 4.5698
lowerneck -28.1354 2.99274 1.81251
upperneck 20.4418 3.72235 -1.13934
head 11.319 1.675 -0.064443
rclavicle 1.45361e-014 -2.70347e-014
rhumerus -69.6224 7.81767 -89.0607
rradius 64.8267
rwrist -21.911
rhand -26.119 -34.3562
rfingers 7.12502
rthumb 0.430841 -64.3356
lclavicle 1.45361e-014 -2.70347e-014
lhumerus -37.275 -36.2359 96.1864
lradius 100.898
lwrist 21.7421
lhand -32.7415 -27.7307
lfingers 7.12502
lthumb -5.96469 2.16532
rfemur -11.7001 -0.564102 11.6482
rtibia 30.5372
rfoot -8.72045 -2.2311
rtoes 10.9701
lfemur 5.67257 4.3403 -25.19
ltibia 30.3074
lfoot -12.9131 6.87725
ltoes -4.37038
224
root 45.0471 17.1874 -1.74904 414.327 85.0542 425.938
lowerback 13.611 -0.0014178 -9.00429
upperback 2.8382 -1.17427 -0.650967
thorax -4.44157 -0.420934 4.59284
lowerneck -28.568 3.04288 1.91105
upperneck 20.5522 3.78754 -1.30417
head 11.4445 1.68514 -0.124166
rclavicle 2.04492e-014 -2.97183e-014
rhumerus -69.5123 7.66759 -88.8524
rradius 64.9537
rwrist -22.4014
rhand -26.1593 -35.4781
rfingers 7.12502
rthumb 0.391898 -65.4575
lclavicle 2.04492e-014 -2.97183e-014
lhumerus -36.6427 -36.5597 95.7886
lradius 100.715
lwrist 21.6908
lhand -32.5916 -27.6737
lfingers 7.12502
lthumb -5.81991 2.22641
rfemur -11.0094 0.265352 12.5188
rtibia 28.953
rfoot -8.07644 -2.56028
rtoes 13.0223
lfemur 6.27349 4.37407 -24.3073
ltibia 30.0353
lfoot -12.2952 6.76536
ltoes -1.55824
225
root 45.1755 17.2239 -1.73282 422.927 83.8753 434.152
lowerback 13.1699 0.044598 -10.2982
upperback 2.65859 -1.27248 -1.06951
thorax -4.35234 -0.452425 4.88284
lowerneck -28.272 3.19886 1.93372
upperneck 20.4691 3.99323 -1.27814
head 11.3638 1.78639 -0.0856851
rclavicle 1.56349e-015 -2.69353e-014
rhumerus -70.0313 7.37014 -88.7159
rradius 65.1236
rwrist -22.7681
rhand -26.2651 -36.1859
rfingers 7.12502
rthumb 0.28971 -66.1655
lclavicle 1.56349e-015 -2.69353e-014
lhumerus -36.8794 -37.0276 95.8657
lradius 100.601
lwrist 21.6762
lhand -32.464 -27.5032
lfingers 7.12502
lthumb -5.69672 2.4002
rfemur -10.8035 0.0838558 10.9007
rtibia 27.6096
rfoot -6.87711 -2.41831
rtoes 14.1197
lfemur 6.27932 4.30356 -25.948
ltibia 30.0152
lfoot -12.7267 6.32726
ltoes -4.33303
226
root 45.289 17.2471 -1.70867 420.006 84.2152 430.88
lowerback 12.7824 0.0420915 -9.80878
upperback 2.60598 -1.17006 -0.958609
thorax -4.22184 -0.41626 4.70343
lowerneck -28.2282 3.06275 1.58252
upperneck 20.425 3.84449 -0.892048
head 11.3197 1.74429 0.0866507
rclavicle -4.72269e-015 -2.38542e-015
rhumerus -70.3352 7.13175 -88.5946
rradius 65.268
rwrist -23.3132
rhand -26.5292 -36.3553
rfingers 7.12502
rthumb 0.0345966 -66.335
lclavicle -4.72269e-015 -2.38542e-015
lhumerus -36.9198 -37.4475 95.8473
lradius 100.451
lwrist 21.7785
lhand -32.2614 -27.4144
lfingers 7.12502
lthumb -5.50107 2.49424
rfemur -10.6366 0.573837 11.7475
rtibia 26.4045
rfoot -5.74392 -2.82661
rtoes 14.2191
lfemur 6.29377 4.37302 -25.2183
ltibia 30.0753
lfoot -11.931 6.47963
ltoes -3.03494
227
root 45.4107 17.2619 -1.69583 421.391 83.9051 431.973
lowerback 12.7682 0.0536354 -10.0014
upperback 2.26927 -1.21623 -1.06928
thorax -4.56535 -0.412503 4.70409
lowerneck -27.9404 3.05239 1.60165
upperneck 20.5817 3.82712 -0.865096
head 11.3278 1.74399 0.0883633
rclavicle -1.42046e-014 -4.80065e-014
rhumerus -71.1236 7.07356 -88.7026
rradius 65.3941
rwrist -24.3251
rhand -27.1804 -35.9106
rfingers 7.12502
rthumb -0.594319 -65.8895
lclavicle -1.42046e-014 -4.80065e-014
lhumerus -37.6271 -37.5564 96.233
lradius 100.295
lwrist 21.7206
lhand -32.0341 -27.3164
lfingers 7.12502
lthumb -5.28163 2.59777
rfemur -10.3245 0.590833 11.5176
rtibia 25.1443
rfoot -4.2256 -3.05186
rtoes 14.3729
lfemur 6.38862 4.32245 -25.5828
ltibia 30.0784
lfoot -12.7909 6.08884
ltoes -4.86838
228
root 45.5309 17.2611 -1.67011 415.6 84.6913 426.03
lowerback 12.6896 0.0419278 -8.9925
upperback 2.19417 -1.09023 -0.801573
thorax -4.63881 -0.363471 4.40197
lowerneck -27.9721 3.02861 1.62447
upperneck 20.7107 3.80833 -0.939173
head 11.3845 1.72662 0.0555552
rclavicle 9.38326e-015 -1.20265e-014
rhumerus -71.5516 6.8422 -88.517
rradius 65.7149
rwrist -24.5845
rhand -26.9328 -36.2135
rfingers 7.12502
rthumb -0.35523 -66.193
lclavicle 9.38326e-015 -1.20265e-014
lhumerus -37.7007 -37.8074 96.3012
lradius 99.987
lwrist 21.5654
lhand -31.8575 -27.1166
lfingers 7.12502
lthumb -5.11117 2.8018
rfemur -9.8162 1.2135 13.0236
rtibia 24.1975
rfoot -2.68895 -3.80577
rtoes 17.7709
lfemur 6.67233 4.31064 -24.2107
ltibia 30.2138
lfoot -12.6378 5.7394
ltoes -3.05281
229
root 45.6535 17.2575 -1.65616 426.379 83.4617 436.525
lowerback 12.1907 0.00903384 -10.4498
upperback 2.22837 -1.27203 -1.20868
thorax -4.27309 -0.447819 4.80456
lowerneck -28.1668 2.95566 1.55274
upperneck 20.735 3.76327 -1.04981
head 11.429 1.68328 0.0206827
rclavicle -5.39959e-015 -1.75427e-014
rhumerus -71.6822 6.66363 -88.2977
rradius 66.0546
rwrist -24.934
rhand -26.827 -36.2666
rfingers 7.12502
rthumb -0.252965 -66.2462
lclavicle -5.39959e-015 -1.75427e-014
lhumerus -37.406 -38.0374 96.1641
lradius 99.6555
lwrist 21.5258
lhand -31.5836 -26.8876
lfingers 7.12502
lthumb -4.84663 3.03696
rfemur -9.49621 0.405974 11.1406
rtibia 23.5368
rfoot -0.718703 -3.93867
rtoes 22.0859
lfemur 6.54402 4.00523 -26.1518
ltibia 30.6384
lfoot -13.339 5.19777
ltoes -5.46644
230
root 45.7785 17.2385 -1.6278 423.766 83.9441 433.857
lowerback 12.3117 0.0206069 -9.88392
upperback 2.02294 -1.2173 -1.06571
thorax -4.57948 -0.410835 4.63604
lowerneck -27.6499 3.01993 1.62657
upperneck 20.5415 3.84697 -1.11546
head 11.268 1.72392 -0.00864106
rclavicle 8.45068e-015 -7.45443e-016
rhumerus -72.2741 6.68758 -88.4013
rradius 66.2202
rwrist -25.509
rhand -26.7209 -36.4459
rfingers 7.12502
rthumb -0.150523 -66.4256
lclavicle 8.45068e-015 -7.45443e-016
lhumerus -38.0129 -38.0381 96.4723
lradius 99.3908
lwrist 21.4923
lhand -31.2436 -26.8018
lfingers 7.12502
lthumb -4.5184 3.12999
rfemur -8.87183 0.611512 12.1377
rtibia 22.9229
rfoot 0.216645 -4.52898
rtoes 27.0391
lfemur 6.83772 4.08628 -25.2003
ltibia 30.9483
lfoot -13.1759 4.90398
ltoes -4.55903
231
root 45.91 17.2158 -1.60258 420.68 84.5053 430.63
lowerback 11.955 0.00178199 -9.19356
upperback 2.06447 -1.1081 -0.899653
thorax -4.36599 -0.381029 4.40176
lowerneck -27.5077 3.03501 1.67107
upperneck 20.3727 3.87531 -1.21647
head 11.1829 1.72867 -0.0512492
rclavicle -6.40809e-015 -2.98177e-015
rhumerus -72.4745 6.65154 -88.4685
rradius 66.4176
rwrist -26.1491
rhand -26.6222 -36.5404
rfingers 7.12502
rthumb -0.055244 -66.5201
lclavicle -6.40809e-015 -2.98177e-015
lhumerus -38.0433 -38.1656 96.5042
lradius 98.9821
lwrist 21.4018
lhand -31.0007 -26.6389
lfingers 7.12502
lthumb -4.28385 3.29775
rfemur -8.3462 0.611669 13.1938
rtibia 22.5172
rfoot -0.129964 -5.06047
rtoes 28.2311
lfemur 7.03653 4.20944 -24.1966
ltibia 31.3472
lfoot -13.8551 4.58548
ltoes -8.01359
232
root 46.0289 17.1844 -1.60277 428.484 83.5444 438.25
lowerback 11.6925 -0.0220288 -10.0067
upperback 2.07218 -1.21823 -1.28803
thorax -4.18568 -0.430177 4.45654
lowerneck -27.8613 2.85076 1.47081
upperneck 20.5539 3.66349 -1.08713
head 11.3039 1.63021 -0.00253982
rclavicle 1.79916e-015 -2.23633e-014
rhumerus -72.6244 6.48328 -88.4424
rradius 66.792
rwrist -26.5917
rhand -26.4496 -36.5384
rfingers 7.12502
rthumb 0.111505 -66.5181
lclavicle 1.79916e-015 -2.23633e-014
lhumerus -37.9289 -38.4366 96.5043
lradius 98.5102
lwrist 21.2198
lhand -30.8595 -26.2734
lfingers 7.12502
lthumb -4.14748 3.66594
rfemur -7.99065 -0.580619 11.7128
rtibia 22.6887
rfoot -1.28698 -4.97987
rtoes 27.119
lfemur 6.92494 4.07678 -25.7076
ltibia 32.011
lfoot -13.581 4.40637
ltoes -7.67964
233
root 46.1474 17.1381 -1.54763 423.45 84.4908 433.231
lowerback 11.7109 0.0460604 -9.24126
upperback 2.09522 -1.02722 -0.933625
thorax -4.20927 -0.348529 4.37607
lowerneck -27.7517 2.82395 1.2508
upperneck 20.4405 3.65534 -0.866506
head 11.2317 1.6401 0.11079
rclavicle 3.51523e-015 -4.67144e-015
rhumerus -72.7806 6.44405 -88.5268
rradius 67.1027
rwrist -26.9579
rhand -26.1968 -36.5376
rfingers 7.12502
rthumb 0.35563 -66.5171
lclavicle 3.51523e-015 -4.67144e-015
lhumerus -37.9306 -38.6217 96.5165
lradius 97.984
lwrist 21.0394
lhand -30.7152 -25.9753
lfingers 7.12502
lthumb -4.00817 3.96671
rfemur -7.3553 0.413772 13.5759
rtibia 22.58
rfoot -3.15928 -6.37332
rtoes 26.016
lfemur 7.09514 4.42679 -23.7617
ltibia 32.7311
lfoot -14.0095 3.8023
ltoes -7.30562
234
root 46.276 17.0933 -1.54146 426.644 84.5073 436.221
lowerback 11.511 -0.0188013 -8.95929
upperback 1.98134 -1.07213 -1.03969
thorax -4.22149 -0.372493 4.10981
lowerneck -27.7668 2.65015 1.14711
upperneck 20.5384 3.45044 -0.833595
head 11.2667 1.54324 0.105043
rclavicle 1.61404e-014 6.85807e-015
rhumerus -73.044 6.37339 -88.6403
rradius 67.366
rwrist -27.3491
rhand -26.2132 -36.2232
rfingers 7.12502
rthumb 0.339788 -66.2027
lclavicle 1.61404e-014 6.85807e-015
lhumerus -38.1955 -38.6615 96.7081
lradius 97.471
lwrist 20.9426
lhand -30.4061 -25.9971
lfingers 7.12502
lthumb -3.70968 3.95035
rfemur -6.83646 -0.085982 13.4866
rtibia 22.2284
rfoot -4.56335 -5.73879
rtoes 27.4779
lfemur 7.1182 4.46875 -23.7866
ltibia 33.3622
lfoot -14.4322 3.30788
ltoes -6.62175
235
root 46.4012 17.0401 -1.52272 426.678 84.8451 436.035
lowerback 11.2478 -0.0323375 -8.44284
upperback 1.89783 -1.00936 -0.986827
thorax -4.1822 -0.350674 3.8636
lowerneck -27.8157 2.56622 1.29223
upperneck 20.5963 3.34679 -1.09536
head 11.3048 1.47211 -0.0323155
rclavicle 5.3369e-015 -1.09332e-014
rhumerus -73.2554 6.27176 -88.7228
rradius 67.6022
rwrist -27.753
rhand -26.4465 -35.5473
rfingers 7.12502
rthumb 0.114511 -65.527
lclavicle 5.3369e-015 -1.09332e-014
lhumerus -38.5043 -38.5577 96.9651
lradius 96.9826
lwrist 20.6053
lhand -30.0691 -26.0758
lfingers 7.12502
lthumb -3.38417 3.87706
rfemur -6.37795 -0.219263 14.0489
rtibia 21.9764
rfoot -5.63444 -4.99127
rtoes 25.871
lfemur 7.07802 4.61031 -23.1648
ltibia 34.0988
lfoot -15.4373 2.68866
ltoes -11.1481
236
root 46.4989 16.9747 -1.48483 426.929 84.5834 436.166
lowerback 11.2059 0.0816166 -8.93066
upperback 1.9287 -0.906785 -0.962624
thorax -4.12998 -0.295445 4.14738
lowerneck -27.5378 2.58003 0.964532
upperneck 20.0321 3.38875 -0.728878
head 11.0293 1.51864 0.155424
rclavicle -2.01665e-014 -2.59414e-014
rhumerus -73.1052 6.37662 -88.8466
rradius 67.7676
rwrist -28.1502
rhand -26.4386 -35.327
rfingers 7.12502
rthumb 0.122128 -65.3067
lclavicle -2.01665e-014 -2.59414e-014
lhumerus -38.3039 -38.413 96.9591
lradius 96.3791
lwrist 20.2073
lhand -29.8776 -25.7654
lfingers 7.12502
lthumb -3.19925 4.19037
rfemur -6.03991 0.773754 14.0785
rtibia 21.5924
rfoot -6.56746 -5.49984
rtoes 26.6631
lfemur 6.85436 4.97199 -22.9269
ltibia 35.1224
lfoot -16.1781 2.12877
ltoes -14.1287
